<svg xmlns="http://www.w3.org/2000/svg" width="1920" height="50"><path d="M-178,-99L-12,-135L48,-149Z" fill="#ede8f3" stroke="#ede8f3" stroke-width="1.51"/><path d="M363,-127L586,-127L681,-135Z" fill="#ddc5e1" stroke="#ddc5e1" stroke-width="1.51"/><path d="M48,-149L363,-127L681,-135Z" fill="#e2d3e7" stroke="#e2d3e7" stroke-width="1.51"/><path d="M48,-149L681,-135L841,-135Z" fill="#dfc9e2" stroke="#dfc9e2" stroke-width="1.51"/><path d="M474,172L231,198L847,205Z" fill="#ac5e7b" stroke="#ac5e7b" stroke-width="1.51"/><path d="M48,-149L841,-135L1129,-135Z" fill="#dcbfdd" stroke="#dcbfdd" stroke-width="1.51"/><path d="M1129,-135L1163,-131L1466,-122Z" fill="#f095bc" stroke="#f095bc" stroke-width="1.51"/><path d="M1163,-131L1246,-121L1466,-122Z" fill="#ee93b7" stroke="#ee93b7" stroke-width="1.51"/><path d="M1132,139L847,205L1502,181Z" fill="#ba2467" stroke="#ba2467" stroke-width="1.51"/><path d="M1502,181L847,205L1718,193Z" fill="#ac1051" stroke="#ac1051" stroke-width="1.51"/><path d="M48,-149L1129,-135L1744,-141Z" fill="#ebaad1" stroke="#ebaad1" stroke-width="1.51"/><path d="M1129,-135L1466,-122L1744,-141Z" fill="#ea90a8" stroke="#ea90a8" stroke-width="1.51"/><path d="M1744,-141L1824,-113L2016,-105Z" fill="#c37e91" stroke="#c37e91" stroke-width="1.51"/><path d="M1836,157L1718,193L2038,185Z" fill="#8e003b" stroke="#8e003b" stroke-width="1.51"/><path d="M1996,150L2038,185L2081,75Z" fill="#95043a" stroke="#95043a" stroke-width="1.51"/><path d="M2016,-105L1987,-86L2098,0Z" fill="#a86179" stroke="#a86179" stroke-width="1.51"/><path d="M1987,-86L1966,-17L2098,0Z" fill="#a55675" stroke="#a55675" stroke-width="1.51"/><path d="M1966,-17L2081,75L2098,0Z" fill="#a73a68" stroke="#a73a68" stroke-width="1.51"/><path d="M1919,31L1996,150L2081,75Z" fill="#ab1052" stroke="#ab1052" stroke-width="1.51"/><path d="M1966,-17L1919,31L2081,75Z" fill="#ad3569" stroke="#ad3569" stroke-width="1.51"/><path d="M1919,31L1906,103L1996,150Z" fill="#ae0f51" stroke="#ae0f51" stroke-width="1.51"/><path d="M1824,-113L1987,-86L2016,-105Z" fill="#b87487" stroke="#b87487" stroke-width="1.51"/><path d="M1996,150L1836,157L2038,185Z" fill="#8d003a" stroke="#8d003a" stroke-width="1.51"/><path d="M1909,-50L1966,-17L1987,-86Z" fill="#ad5f7d" stroke="#ad5f7d" stroke-width="1.51"/><path d="M1824,-113L1909,-50L1987,-86Z" fill="#b76e86" stroke="#b76e86" stroke-width="1.51"/><path d="M1906,103L1836,157L1996,150Z" fill="#a10442" stroke="#a10442" stroke-width="1.51"/><path d="M1909,-50L1919,31L1966,-17Z" fill="#ad4f77" stroke="#ad4f77" stroke-width="1.51"/><path d="M1909,-50L1755,56L1919,31Z" fill="#b74377" stroke="#b74377" stroke-width="1.51"/><path d="M1755,56L1906,103L1919,31Z" fill="#ba2066" stroke="#ba2066" stroke-width="1.51"/><path d="M1755,56L1836,157L1906,103Z" fill="#b50d53" stroke="#b50d53" stroke-width="1.51"/><path d="M1824,-113L1755,56L1909,-50Z" fill="#b55c83" stroke="#b55c83" stroke-width="1.51"/><path d="M1466,-122L1598,-88L1744,-141Z" fill="#dd879c" stroke="#dd879c" stroke-width="1.51"/><path d="M1723,-68L1755,56L1824,-113Z" fill="#bd6187" stroke="#bd6187" stroke-width="1.51"/><path d="M1745,138L1718,193L1836,157Z" fill="#9f0145" stroke="#9f0145" stroke-width="1.51"/><path d="M1755,56L1745,138L1836,157Z" fill="#b70b4f" stroke="#b70b4f" stroke-width="1.51"/><path d="M1744,-141L1723,-68L1824,-113Z" fill="#ca7c93" stroke="#ca7c93" stroke-width="1.51"/><path d="M1606,154L1502,181L1718,193Z" fill="#a70546" stroke="#a70546" stroke-width="1.51"/><path d="M1719,-73L1723,-68L1744,-141Z" fill="#cb7893" stroke="#cb7893" stroke-width="1.51"/><path d="M1723,-68L1684,23L1755,56Z" fill="#c34c7f" stroke="#c34c7f" stroke-width="1.51"/><path d="M1684,23L1702,63L1755,56Z" fill="#c83073" stroke="#c83073" stroke-width="1.51"/><path d="M1702,63L1745,138L1755,56Z" fill="#c31561" stroke="#c31561" stroke-width="1.51"/><path d="M1318,123L1132,139L1502,181Z" fill="#c71663" stroke="#c71663" stroke-width="1.51"/><path d="M1606,154L1718,193L1745,138Z" fill="#a60448" stroke="#a60448" stroke-width="1.51"/><path d="M1702,63L1606,154L1745,138Z" fill="#bf0d52" stroke="#bf0d52" stroke-width="1.51"/><path d="M1598,-88L1719,-73L1744,-141Z" fill="#d07d95" stroke="#d07d95" stroke-width="1.51"/><path d="M718,180L474,172L847,205Z" fill="#ab547a" stroke="#ab547a" stroke-width="1.51"/><path d="M1598,-88L1585,-16L1684,23Z" fill="#c9608a" stroke="#c9608a" stroke-width="1.51"/><path d="M1598,-88L1684,23L1719,-73Z" fill="#c8668b" stroke="#c8668b" stroke-width="1.51"/><path d="M1719,-73L1684,23L1723,-68Z" fill="#c26289" stroke="#c26289" stroke-width="1.51"/><path d="M1623,54L1606,154L1702,63Z" fill="#cb1662" stroke="#cb1662" stroke-width="1.51"/><path d="M1684,23L1623,54L1702,63Z" fill="#cc3174" stroke="#cc3174" stroke-width="1.51"/><path d="M1585,-16L1623,54L1684,23Z" fill="#ce447f" stroke="#ce447f" stroke-width="1.51"/><path d="M1246,-121L1373,-100L1466,-122Z" fill="#ea8eaf" stroke="#ea8eaf" stroke-width="1.51"/><path d="M1359,126L1318,123L1502,181Z" fill="#c6145e" stroke="#c6145e" stroke-width="1.51"/><path d="M1508,106L1606,154L1623,54Z" fill="#cd155c" stroke="#cd155c" stroke-width="1.51"/><path d="M1585,-16L1508,106L1623,54Z" fill="#d63377" stroke="#d63377" stroke-width="1.51"/><path d="M1508,106L1502,181L1606,154Z" fill="#bd0c50" stroke="#bd0c50" stroke-width="1.51"/><path d="M1468,-43L1585,-16L1598,-88Z" fill="#d36c91" stroke="#d36c91" stroke-width="1.51"/><path d="M1466,-122L1468,-43L1598,-88Z" fill="#dd7c99" stroke="#dd7c99" stroke-width="1.51"/><path d="M1468,-43L1508,106L1585,-16Z" fill="#d84a85" stroke="#d84a85" stroke-width="1.51"/><path d="M1051,137L847,205L1132,139Z" fill="#c13876" stroke="#c13876" stroke-width="1.51"/><path d="M1468,-43L1342,93L1508,106Z" fill="#de3480" stroke="#de3480" stroke-width="1.51"/><path d="M1342,93L1359,126L1508,106Z" fill="#d71b67" stroke="#d71b67" stroke-width="1.51"/><path d="M1359,126L1502,181L1508,106Z" fill="#c71259" stroke="#c71259" stroke-width="1.51"/><path d="M1201,115L1161,126L1318,123Z" fill="#da2170" stroke="#da2170" stroke-width="1.51"/><path d="M1161,126L1132,139L1318,123Z" fill="#d52470" stroke="#d52470" stroke-width="1.51"/><path d="M1373,-100L1392,-69L1466,-122Z" fill="#e485a6" stroke="#e485a6" stroke-width="1.51"/><path d="M1392,-69L1342,93L1468,-43Z" fill="#d95c95" stroke="#d95c95" stroke-width="1.51"/><path d="M1466,-122L1392,-69L1468,-43Z" fill="#de7ca0" stroke="#de7ca0" stroke-width="1.51"/><path d="M1289,44L1342,93L1392,-69Z" fill="#e04b94" stroke="#e04b94" stroke-width="1.51"/><path d="M1337,-70L1289,44L1392,-69Z" fill="#da6ba0" stroke="#da6ba0" stroke-width="1.51"/><path d="M1373,-100L1337,-70L1392,-69Z" fill="#e17fa7" stroke="#e17fa7" stroke-width="1.51"/><path d="M841,-135L906,-116L1129,-135Z" fill="#e9a8d0" stroke="#e9a8d0" stroke-width="1.51"/><path d="M1246,-121L1337,-70L1373,-100Z" fill="#e788af" stroke="#e788af" stroke-width="1.51"/><path d="M363,-127L390,-124L586,-127Z" fill="#decbe3" stroke="#decbe3" stroke-width="1.51"/><path d="M1342,93L1318,123L1359,126Z" fill="#d81c6a" stroke="#d81c6a" stroke-width="1.51"/><path d="M1228,-7L1289,44L1337,-70Z" fill="#dc62a1" stroke="#dc62a1" stroke-width="1.51"/><path d="M1289,44L1318,123L1342,93Z" fill="#e1247b" stroke="#e1247b" stroke-width="1.51"/><path d="M1246,-121L1228,-7L1337,-70Z" fill="#e27cad" stroke="#e27cad" stroke-width="1.51"/><path d="M1289,44L1201,115L1318,123Z" fill="#e1237b" stroke="#e1237b" stroke-width="1.51"/><path d="M1228,-7L1201,115L1289,44Z" fill="#e63c93" stroke="#e63c93" stroke-width="1.51"/><path d="M1109,49L1201,115L1228,-7Z" fill="#e54296" stroke="#e54296" stroke-width="1.51"/><path d="M1163,-131L1228,-7L1246,-121Z" fill="#e688b6" stroke="#e688b6" stroke-width="1.51"/><path d="M1163,-131L1096,-22L1228,-7Z" fill="#de7db3" stroke="#de7db3" stroke-width="1.51"/><path d="M1096,-22L1109,49L1228,-7Z" fill="#df61a8" stroke="#df61a8" stroke-width="1.51"/><path d="M1129,-135L1096,-22L1163,-131Z" fill="#e792be" stroke="#e792be" stroke-width="1.51"/><path d="M1109,49L1161,126L1201,115Z" fill="#e03282" stroke="#e03282" stroke-width="1.51"/><path d="M906,-116L1028,-87L1129,-135Z" fill="#e7a0ca" stroke="#e7a0ca" stroke-width="1.51"/><path d="M1109,49L1132,139L1161,126Z" fill="#de337f" stroke="#de337f" stroke-width="1.51"/><path d="M1028,-87L1096,-22L1129,-135Z" fill="#e28ebe" stroke="#e28ebe" stroke-width="1.51"/><path d="M1109,49L1050,87L1132,139Z" fill="#e13a89" stroke="#e13a89" stroke-width="1.51"/><path d="M1050,87L1051,137L1132,139Z" fill="#d9377a" stroke="#d9377a" stroke-width="1.51"/><path d="M1096,-22L1050,87L1109,49Z" fill="#e354a2" stroke="#e354a2" stroke-width="1.51"/><path d="M965,9L1050,87L1096,-22Z" fill="#e15fab" stroke="#e15fab" stroke-width="1.51"/><path d="M1028,-87L965,9L1096,-22Z" fill="#d97db9" stroke="#d97db9" stroke-width="1.51"/><path d="M924,35L891,124L1050,87Z" fill="#e24b97" stroke="#e24b97" stroke-width="1.51"/><path d="M1050,87L891,124L1051,137Z" fill="#da4181" stroke="#da4181" stroke-width="1.51"/><path d="M891,124L847,205L1051,137Z" fill="#c3417b" stroke="#c3417b" stroke-width="1.51"/><path d="M965,9L924,35L1050,87Z" fill="#e25aa7" stroke="#e25aa7" stroke-width="1.51"/><path d="M906,-116L933,-66L1028,-87Z" fill="#e09ac9" stroke="#e09ac9" stroke-width="1.51"/><path d="M933,-66L965,9L1028,-87Z" fill="#d988bf" stroke="#d988bf" stroke-width="1.51"/><path d="M933,-66L924,35L965,9Z" fill="#d878b9" stroke="#d878b9" stroke-width="1.51"/><path d="M826,-56L924,35L933,-66Z" fill="#d486bf" stroke="#d486bf" stroke-width="1.51"/><path d="M906,-116L826,-56L933,-66Z" fill="#db9bca" stroke="#db9bca" stroke-width="1.51"/><path d="M795,91L891,124L924,35Z" fill="#df549a" stroke="#df549a" stroke-width="1.51"/><path d="M826,-56L795,91L924,35Z" fill="#db70b5" stroke="#db70b5" stroke-width="1.51"/><path d="M841,-135L826,-56L906,-116Z" fill="#dfa7d0" stroke="#dfa7d0" stroke-width="1.51"/><path d="M795,91L847,205L891,124Z" fill="#ca4d81" stroke="#ca4d81" stroke-width="1.51"/><path d="M739,-4L795,91L826,-56Z" fill="#d67cba" stroke="#d67cba" stroke-width="1.51"/><path d="M795,91L718,180L847,205Z" fill="#be4f7f" stroke="#be4f7f" stroke-width="1.51"/><path d="M681,-135L826,-56L841,-135Z" fill="#dcafd4" stroke="#dcafd4" stroke-width="1.51"/><path d="M681,-135L739,-4L826,-56Z" fill="#d29fcc" stroke="#d29fcc" stroke-width="1.51"/><path d="M739,-4L713,113L795,91Z" fill="#dd65a8" stroke="#dd65a8" stroke-width="1.51"/><path d="M713,113L718,180L795,91Z" fill="#cf5a88" stroke="#cf5a88" stroke-width="1.51"/><path d="M372,163L231,198L474,172Z" fill="#b86b87" stroke="#b86b87" stroke-width="1.51"/><path d="M601,128L474,172L718,180Z" fill="#bb5e86" stroke="#bb5e86" stroke-width="1.51"/><path d="M643,24L713,113L739,-4Z" fill="#d974b2" stroke="#d974b2" stroke-width="1.51"/><path d="M681,-135L643,24L739,-4Z" fill="#cc99c9" stroke="#cc99c9" stroke-width="1.51"/><path d="M578,-83L643,24L681,-135Z" fill="#cfa7d1" stroke="#cfa7d1" stroke-width="1.51"/><path d="M713,113L601,128L718,180Z" fill="#c55d88" stroke="#c55d88" stroke-width="1.51"/><path d="M643,24L601,128L713,113Z" fill="#d9689f" stroke="#d9689f" stroke-width="1.51"/><path d="M585,110L601,128L643,24Z" fill="#da6ca1" stroke="#da6ca1" stroke-width="1.51"/><path d="M586,-127L578,-83L681,-135Z" fill="#d9bddc" stroke="#d9bddc" stroke-width="1.51"/><path d="M539,-3L585,110L643,24Z" fill="#da7cb7" stroke="#da7cb7" stroke-width="1.51"/><path d="M578,-83L539,-3L643,24Z" fill="#cc99c9" stroke="#cc99c9" stroke-width="1.51"/><path d="M539,-3L514,43L585,110Z" fill="#dc7db6" stroke="#dc7db6" stroke-width="1.51"/><path d="M488,121L474,172L585,110Z" fill="#cd6a8e" stroke="#cd6a8e" stroke-width="1.51"/><path d="M585,110L474,172L601,128Z" fill="#cb678c" stroke="#cb678c" stroke-width="1.51"/><path d="M514,43L488,121L585,110Z" fill="#db71a2" stroke="#db71a2" stroke-width="1.51"/><path d="M443,-66L578,-83L586,-127Z" fill="#d6b8da" stroke="#d6b8da" stroke-width="1.51"/><path d="M390,-124L443,-66L586,-127Z" fill="#dac2df" stroke="#dac2df" stroke-width="1.51"/><path d="M443,-66L539,-3L578,-83Z" fill="#d0a9d1" stroke="#d0a9d1" stroke-width="1.51"/><path d="M443,-66L514,43L539,-3Z" fill="#d099c9" stroke="#d099c9" stroke-width="1.51"/><path d="M398,80L488,121L514,43Z" fill="#df77a9" stroke="#df77a9" stroke-width="1.51"/><path d="M443,-66L398,80L514,43Z" fill="#d990c4" stroke="#d990c4" stroke-width="1.51"/><path d="M350,-43L398,80L443,-66Z" fill="#d3a0cd" stroke="#d3a0cd" stroke-width="1.51"/><path d="M398,80L474,172L488,121Z" fill="#d57092" stroke="#d57092" stroke-width="1.51"/><path d="M398,80L372,163L474,172Z" fill="#cd7090" stroke="#cd7090" stroke-width="1.51"/><path d="M48,-149L205,-79L363,-127Z" fill="#e4daeb" stroke="#e4daeb" stroke-width="1.51"/><path d="M386,83L372,163L398,80Z" fill="#db789c" stroke="#db789c" stroke-width="1.51"/><path d="M390,-124L350,-43L443,-66Z" fill="#d6bbdc" stroke="#d6bbdc" stroke-width="1.51"/><path d="M350,-43L239,64L386,83Z" fill="#e092c3" stroke="#e092c3" stroke-width="1.51"/><path d="M363,-127L350,-43L390,-124Z" fill="#dbc6e1" stroke="#dbc6e1" stroke-width="1.51"/><path d="M350,-43L386,83L398,80Z" fill="#df8cbf" stroke="#df8cbf" stroke-width="1.51"/><path d="M239,64L372,163L386,83Z" fill="#df7da1" stroke="#df7da1" stroke-width="1.51"/><path d="M239,64L231,198L372,163Z" fill="#d07894" stroke="#d07894" stroke-width="1.51"/><path d="M205,-79L350,-43L363,-127Z" fill="#dac4e0" stroke="#dac4e0" stroke-width="1.51"/><path d="M200,-45L239,64L350,-43Z" fill="#d8a9d1" stroke="#d8a9d1" stroke-width="1.51"/><path d="M205,-79L200,-45L350,-43Z" fill="#d7bddc" stroke="#d7bddc" stroke-width="1.51"/><path d="M48,-149L135,-85L205,-79Z" fill="#e4daeb" stroke="#e4daeb" stroke-width="1.51"/><path d="M106,125L231,198L239,64Z" fill="#db829a" stroke="#db829a" stroke-width="1.51"/><path d="M150,52L106,125L239,64Z" fill="#eb8db4" stroke="#eb8db4" stroke-width="1.51"/><path d="M200,-45L167,9L239,64Z" fill="#dfa6d0" stroke="#dfa6d0" stroke-width="1.51"/><path d="M167,9L150,52L239,64Z" fill="#e79ac5" stroke="#e79ac5" stroke-width="1.51"/><path d="M106,125L26,199L231,198Z" fill="#c37d91" stroke="#c37d91" stroke-width="1.51"/><path d="M135,-85L200,-45L205,-79Z" fill="#dbc7e1" stroke="#dbc7e1" stroke-width="1.51"/><path d="M135,-85L167,9L200,-45Z" fill="#d8bddc" stroke="#d8bddc" stroke-width="1.51"/><path d="M88,-27L150,52L167,9Z" fill="#e2aad2" stroke="#e2aad2" stroke-width="1.51"/><path d="M135,-85L88,-27L167,9Z" fill="#d9bddc" stroke="#d9bddc" stroke-width="1.51"/><path d="M34,49L106,125L150,52Z" fill="#ee93b9" stroke="#ee93b9" stroke-width="1.51"/><path d="M88,-27L34,49L150,52Z" fill="#e7a6d0" stroke="#e7a6d0" stroke-width="1.51"/><path d="M48,-149L88,-27L135,-85Z" fill="#e2d4e8" stroke="#e2d4e8" stroke-width="1.51"/><path d="M48,-149L9,-11L88,-27Z" fill="#decce4" stroke="#decce4" stroke-width="1.51"/><path d="M34,49L-8,153L106,125Z" fill="#e88ea6" stroke="#e88ea6" stroke-width="1.51"/><path d="M-8,153L26,199L106,125Z" fill="#ce8397" stroke="#ce8397" stroke-width="1.51"/><path d="M-12,-135L9,-11L48,-149Z" fill="#e6dcec" stroke="#e6dcec" stroke-width="1.51"/><path d="M9,-11L34,49L88,-27Z" fill="#e2b1d5" stroke="#e2b1d5" stroke-width="1.51"/><path d="M-4,53L-8,153L34,49Z" fill="#ef93b5" stroke="#ef93b5" stroke-width="1.51"/><path d="M9,-11L-4,53L34,49Z" fill="#eaa7cf" stroke="#eaa7cf" stroke-width="1.51"/><path d="M-8,153L-139,196L26,199Z" fill="#c3808f" stroke="#c3808f" stroke-width="1.51"/><path d="M-12,-135L-178,-99L9,-11Z" fill="#e5d7ea" stroke="#e5d7ea" stroke-width="1.51"/><path d="M-178,-99L-173,19L9,-11Z" fill="#e0c5e0" stroke="#e0c5e0" stroke-width="1.51"/><path d="M-173,19L-4,53L9,-11Z" fill="#eaadd3" stroke="#eaadd3" stroke-width="1.51"/><path d="M-169,58L-139,196L-8,153Z" fill="#e18d9f" stroke="#e18d9f" stroke-width="1.51"/><path d="M-169,58L-8,153L-4,53Z" fill="#f095b5" stroke="#f095b5" stroke-width="1.51"/><path d="M-173,19L-169,58L-4,53Z" fill="#f0a6cb" stroke="#f0a6cb" stroke-width="1.51"/></svg>